<svg id="mol30" xmlns="http://www.w3.org/2000/svg" version="1.1" width="146px" height="130px" viewBox="80 32 146 130">
  <style> text {font-family: sans-serif;} #mol30 { pointer-events:none; } #mol30 .event  { pointer-events:all; } line { stroke-linecap:round; } polygon { stroke-linejoin:round; } </style>
  <text x="206.91" y="86.67" stroke="none" font-size="14" fill="rgb(255,13,13)">O</text>
  <text x="186.12" y="50.67" stroke="none" font-size="14" fill="rgb(255,13,13)">O</text>
  <text x="197.01" y="50.67" stroke="none" font-size="14" fill="rgb(255,13,13)">H</text>
  <text x="102.99" y="74.67" stroke="none" font-size="14" fill="rgb(255,13,13)">O</text>
  <text x="144.55" y="146.67" stroke="none" font-size="14" fill="rgb(255,13,13)">O</text>
  <text x="102.99" y="122.67" stroke="none" font-size="14" fill="rgb(255,13,13)">O</text>
  <line x1="189.77" y1="71.04" x2="205.01" y2="79.84" stroke="rgb(0,0,0)" stroke-width="1.44" />
  <line x1="191.57" y1="67.92" x2="206.81" y2="76.72" stroke="rgb(0,0,0)" stroke-width="1.44" />
  <line x1="170.78" y1="82" x2="150" y2="70" stroke="rgb(0,0,0)" stroke-width="1.44" />
  <line x1="166.77" y1="83.84" x2="150.42" y2="74.4" stroke="rgb(0,0,0)" stroke-width="1.44" />
  <line x1="170.78" y1="106" x2="150" y2="118" stroke="rgb(0,0,0)" stroke-width="1.44" />
  <line x1="166.77" y1="104.16" x2="150.42" y2="113.6" stroke="rgb(0,0,0)" stroke-width="1.44" />
  <line x1="129.22" y1="82" x2="129.22" y2="106" stroke="rgb(0,0,0)" stroke-width="1.44" />
  <line x1="132.82" y1="84.56" x2="132.82" y2="103.44" stroke="rgb(0,0,0)" stroke-width="1.44" />
  <line x1="191.57" y1="70" x2="191.57" y2="53" stroke="rgb(0,0,0)" stroke-width="1.44" />
  <line x1="191.57" y1="70" x2="170.78" y2="82" stroke="rgb(0,0,0)" stroke-width="1.44" />
  <line x1="170.78" y1="82" x2="170.78" y2="106" stroke="rgb(0,0,0)" stroke-width="1.44" />
  <line x1="150" y1="70" x2="129.22" y2="82" stroke="rgb(0,0,0)" stroke-width="1.44" />
  <line x1="129.22" y1="82" x2="114.88" y2="73.72" stroke="rgb(0,0,0)" stroke-width="1.44" />
  <line x1="150" y1="118" x2="150" y2="135" stroke="rgb(0,0,0)" stroke-width="1.44" />
  <line x1="101.99" y1="73.72" x2="87.65" y2="82" stroke="rgb(0,0,0)" stroke-width="1.44" />
  <line x1="129.22" y1="106" x2="114.88" y2="114.28" stroke="rgb(0,0,0)" stroke-width="1.44" />
  <line x1="156.45" y1="145.72" x2="170.78" y2="154" stroke="rgb(0,0,0)" stroke-width="1.44" />
  <line x1="108.43" y1="125" x2="108.43" y2="142" stroke="rgb(0,0,0)" stroke-width="1.44" />
  <line x1="150" y1="118" x2="129.22" y2="106" stroke="rgb(0,0,0)" stroke-width="1.44" />
  <line id="mol30:Bond:0" class="event" x1="212.35" y1="82" x2="191.57" y2="70" stroke-width="8" opacity="0" />
  <line id="mol30:Bond:3" class="event" x1="170.78" y1="82" x2="150" y2="70" stroke-width="8" opacity="0" />
  <line id="mol30:Bond:6" class="event" x1="170.78" y1="106" x2="150" y2="118" stroke-width="8" opacity="0" />
  <line id="mol30:Bond:8" class="event" x1="129.22" y1="82" x2="129.22" y2="106" stroke-width="8" opacity="0" />
  <line id="mol30:Bond:1" class="event" x1="191.57" y1="70" x2="191.57" y2="46" stroke-width="8" opacity="0" />
  <line id="mol30:Bond:2" class="event" x1="191.57" y1="70" x2="170.78" y2="82" stroke-width="8" opacity="0" />
  <line id="mol30:Bond:4" class="event" x1="170.78" y1="82" x2="170.78" y2="106" stroke-width="8" opacity="0" />
  <line id="mol30:Bond:5" class="event" x1="150" y1="70" x2="129.22" y2="82" stroke-width="8" opacity="0" />
  <line id="mol30:Bond:7" class="event" x1="129.22" y1="82" x2="108.43" y2="70" stroke-width="8" opacity="0" />
  <line id="mol30:Bond:9" class="event" x1="150" y1="118" x2="150" y2="142" stroke-width="8" opacity="0" />
  <line id="mol30:Bond:10" class="event" x1="108.43" y1="70" x2="87.65" y2="82" stroke-width="8" opacity="0" />
  <line id="mol30:Bond:11" class="event" x1="129.22" y1="106" x2="108.43" y2="118" stroke-width="8" opacity="0" />
  <line id="mol30:Bond:12" class="event" x1="150" y1="142" x2="170.78" y2="154" stroke-width="8" opacity="0" />
  <line id="mol30:Bond:13" class="event" x1="108.43" y1="118" x2="108.43" y2="142" stroke-width="8" opacity="0" />
  <line id="mol30:Bond:14" class="event" x1="150" y1="118" x2="129.22" y2="106" stroke-width="8" opacity="0" />
  <circle id="mol30:Atom:0" class="event" cx="212.35" cy="82" r="8" opacity="0" />
  <circle id="mol30:Atom:1" class="event" cx="191.57" cy="70" r="8" opacity="0" />
  <circle id="mol30:Atom:2" class="event" cx="191.57" cy="46" r="8" opacity="0" />
  <circle id="mol30:Atom:3" class="event" cx="170.78" cy="82" r="8" opacity="0" />
  <circle id="mol30:Atom:4" class="event" cx="150" cy="70" r="8" opacity="0" />
  <circle id="mol30:Atom:5" class="event" cx="170.78" cy="106" r="8" opacity="0" />
  <circle id="mol30:Atom:6" class="event" cx="129.22" cy="82" r="8" opacity="0" />
  <circle id="mol30:Atom:7" class="event" cx="150" cy="118" r="8" opacity="0" />
  <circle id="mol30:Atom:8" class="event" cx="108.43" cy="70" r="8" opacity="0" />
  <circle id="mol30:Atom:9" class="event" cx="129.22" cy="106" r="8" opacity="0" />
  <circle id="mol30:Atom:10" class="event" cx="150" cy="142" r="8" opacity="0" />
  <circle id="mol30:Atom:11" class="event" cx="87.65" cy="82" r="8" opacity="0" />
  <circle id="mol30:Atom:12" class="event" cx="108.43" cy="118" r="8" opacity="0" />
  <circle id="mol30:Atom:13" class="event" cx="170.78" cy="154" r="8" opacity="0" />
  <circle id="mol30:Atom:14" class="event" cx="108.43" cy="142" r="8" opacity="0" />
</svg>