<svg id="mol34" xmlns="http://www.w3.org/2000/svg" version="1.1" width="70px" height="133px" viewBox="115 34 70 133">
  <style> text {font-family: sans-serif;} #mol34 { pointer-events:none; } #mol34 .event  { pointer-events:all; } line { stroke-linecap:round; } polygon { stroke-linejoin:round; } </style>
  <line x1="140.45" y1="88" x2="163.28" y2="80.58" stroke="rgb(0,0,0)" stroke-width="1.44" />
  <line x1="141.77" y1="83.78" x2="159.73" y2="77.95" stroke="rgb(0,0,0)" stroke-width="1.44" />
  <line x1="140.45" y1="112" x2="163.28" y2="119.42" stroke="rgb(0,0,0)" stroke-width="1.44" />
  <line x1="141.77" y1="116.22" x2="159.73" y2="122.05" stroke="rgb(0,0,0)" stroke-width="1.44" />
  <line x1="122.62" y1="71.94" x2="127.61" y2="48.47" stroke="rgb(0,0,0)" stroke-width="1.44" />
  <line x1="126.67" y1="70.18" x2="130.6" y2="51.72" stroke="rgb(0,0,0)" stroke-width="1.44" />
  <line x1="122.62" y1="128.06" x2="127.61" y2="151.53" stroke="rgb(0,0,0)" stroke-width="1.44" />
  <line x1="126.67" y1="129.82" x2="130.6" y2="148.28" stroke="rgb(0,0,0)" stroke-width="1.44" />
  <line x1="168.27" y1="57.11" x2="150.43" y2="41.05" stroke="rgb(0,0,0)" stroke-width="1.44" />
  <line x1="163.96" y1="58.07" x2="149.92" y2="45.44" stroke="rgb(0,0,0)" stroke-width="1.44" />
  <line x1="168.27" y1="142.89" x2="150.43" y2="158.95" stroke="rgb(0,0,0)" stroke-width="1.44" />
  <line x1="163.96" y1="141.93" x2="149.92" y2="154.56" stroke="rgb(0,0,0)" stroke-width="1.44" />
  <line x1="140.45" y1="88" x2="140.45" y2="112" stroke="rgb(0,0,0)" stroke-width="1.44" />
  <line x1="140.45" y1="88" x2="122.62" y2="71.94" stroke="rgb(0,0,0)" stroke-width="1.44" />
  <line x1="140.45" y1="112" x2="122.62" y2="128.06" stroke="rgb(0,0,0)" stroke-width="1.44" />
  <line x1="163.28" y1="80.58" x2="168.27" y2="57.11" stroke="rgb(0,0,0)" stroke-width="1.44" />
  <line x1="163.28" y1="80.58" x2="177.38" y2="100" stroke="rgb(0,0,0)" stroke-width="1.44" />
  <line x1="163.28" y1="119.42" x2="168.27" y2="142.89" stroke="rgb(0,0,0)" stroke-width="1.44" />
  <line x1="163.28" y1="119.42" x2="177.38" y2="100" stroke="rgb(0,0,0)" stroke-width="1.44" />
  <line x1="127.61" y1="48.47" x2="150.43" y2="41.05" stroke="rgb(0,0,0)" stroke-width="1.44" />
  <line x1="127.61" y1="151.53" x2="150.43" y2="158.95" stroke="rgb(0,0,0)" stroke-width="1.44" />
  <line id="mol34:Bond:1" class="event" x1="140.45" y1="88" x2="163.28" y2="80.58" stroke-width="8" opacity="0" />
  <line id="mol34:Bond:3" class="event" x1="140.45" y1="112" x2="163.28" y2="119.42" stroke-width="8" opacity="0" />
  <line id="mol34:Bond:7" class="event" x1="122.62" y1="71.94" x2="127.61" y2="48.47" stroke-width="8" opacity="0" />
  <line id="mol34:Bond:9" class="event" x1="122.62" y1="128.06" x2="127.61" y2="151.53" stroke-width="8" opacity="0" />
  <line id="mol34:Bond:10" class="event" x1="168.27" y1="57.11" x2="150.43" y2="41.05" stroke-width="8" opacity="0" />
  <line id="mol34:Bond:11" class="event" x1="168.27" y1="142.89" x2="150.43" y2="158.95" stroke-width="8" opacity="0" />
  <line id="mol34:Bond:0" class="event" x1="140.45" y1="88" x2="140.45" y2="112" stroke-width="8" opacity="0" />
  <line id="mol34:Bond:2" class="event" x1="140.45" y1="88" x2="122.62" y2="71.94" stroke-width="8" opacity="0" />
  <line id="mol34:Bond:4" class="event" x1="140.45" y1="112" x2="122.62" y2="128.06" stroke-width="8" opacity="0" />
  <line id="mol34:Bond:5" class="event" x1="163.28" y1="80.58" x2="168.27" y2="57.11" stroke-width="8" opacity="0" />
  <line id="mol34:Bond:6" class="event" x1="163.28" y1="80.58" x2="177.38" y2="100" stroke-width="8" opacity="0" />
  <line id="mol34:Bond:8" class="event" x1="163.28" y1="119.42" x2="168.27" y2="142.89" stroke-width="8" opacity="0" />
  <line id="mol34:Bond:12" class="event" x1="163.28" y1="119.42" x2="177.38" y2="100" stroke-width="8" opacity="0" />
  <line id="mol34:Bond:13" class="event" x1="127.61" y1="48.47" x2="150.43" y2="41.05" stroke-width="8" opacity="0" />
  <line id="mol34:Bond:14" class="event" x1="127.61" y1="151.53" x2="150.43" y2="158.95" stroke-width="8" opacity="0" />
  <circle id="mol34:Atom:0" class="event" cx="140.45" cy="88" r="8" opacity="0" />
  <circle id="mol34:Atom:1" class="event" cx="140.45" cy="112" r="8" opacity="0" />
  <circle id="mol34:Atom:2" class="event" cx="163.28" cy="80.58" r="8" opacity="0" />
  <circle id="mol34:Atom:3" class="event" cx="122.62" cy="71.94" r="8" opacity="0" />
  <circle id="mol34:Atom:4" class="event" cx="163.28" cy="119.42" r="8" opacity="0" />
  <circle id="mol34:Atom:5" class="event" cx="122.62" cy="128.06" r="8" opacity="0" />
  <circle id="mol34:Atom:6" class="event" cx="168.27" cy="57.11" r="8" opacity="0" />
  <circle id="mol34:Atom:7" class="event" cx="177.38" cy="100" r="8" opacity="0" />
  <circle id="mol34:Atom:8" class="event" cx="127.61" cy="48.47" r="8" opacity="0" />
  <circle id="mol34:Atom:9" class="event" cx="168.27" cy="142.89" r="8" opacity="0" />
  <circle id="mol34:Atom:10" class="event" cx="127.61" cy="151.53" r="8" opacity="0" />
  <circle id="mol34:Atom:11" class="event" cx="150.43" cy="41.05" r="8" opacity="0" />
  <circle id="mol34:Atom:12" class="event" cx="150.43" cy="158.95" r="8" opacity="0" />
</svg>