<svg id="mol35" xmlns="http://www.w3.org/2000/svg" version="1.1" width="104px" height="137px" viewBox="101 32 104 137">
  <style> text {font-family: sans-serif;} #mol35 { pointer-events:none; } #mol35 .event  { pointer-events:all; } line { stroke-linecap:round; } polygon { stroke-linejoin:round; } </style>
  <text x="186.12" y="158.67" stroke="none" font-size="14" fill="rgb(255,13,13)">O</text>
  <text x="144.56" y="158.67" stroke="none" font-size="14" fill="rgb(255,13,13)">O</text>
  <text x="165.34" y="50.67" stroke="none" font-size="14" fill="rgb(255,13,13)">O</text>
  <text x="176.23" y="50.67" stroke="none" font-size="14" fill="rgb(255,13,13)">H</text>
  <line x1="168.99" y1="143.04" x2="184.22" y2="151.84" stroke="rgb(0,0,0)" stroke-width="1.44" />
  <line x1="170.79" y1="139.92" x2="186.02" y2="148.72" stroke="rgb(0,0,0)" stroke-width="1.44" />
  <line x1="170.79" y1="118" x2="191.57" y2="106" stroke="rgb(0,0,0)" stroke-width="1.44" />
  <line x1="171.2" y1="113.6" x2="187.55" y2="104.16" stroke="rgb(0,0,0)" stroke-width="1.44" />
  <line x1="150" y1="106" x2="150" y2="82" stroke="rgb(0,0,0)" stroke-width="1.44" />
  <line x1="153.6" y1="103.44" x2="153.6" y2="84.56" stroke="rgb(0,0,0)" stroke-width="1.44" />
  <line x1="191.57" y1="82" x2="170.79" y2="70" stroke="rgb(0,0,0)" stroke-width="1.44" />
  <line x1="187.55" y1="83.84" x2="171.2" y2="74.4" stroke="rgb(0,0,0)" stroke-width="1.44" />
  <line x1="170.79" y1="142" x2="156.45" y2="150.28" stroke="rgb(0,0,0)" stroke-width="1.44" />
  <line x1="170.79" y1="142" x2="170.79" y2="118" stroke="rgb(0,0,0)" stroke-width="1.44" />
  <line x1="143.56" y1="150.28" x2="129.21" y2="142" stroke="rgb(0,0,0)" stroke-width="1.44" />
  <line x1="170.79" y1="118" x2="150" y2="106" stroke="rgb(0,0,0)" stroke-width="1.44" />
  <line x1="129.21" y1="142" x2="108.43" y2="154" stroke="rgb(0,0,0)" stroke-width="1.44" />
  <line x1="191.57" y1="106" x2="191.57" y2="82" stroke="rgb(0,0,0)" stroke-width="1.44" />
  <line x1="170.79" y1="70" x2="170.79" y2="53" stroke="rgb(0,0,0)" stroke-width="1.44" />
  <line x1="150" y1="82" x2="170.79" y2="70" stroke="rgb(0,0,0)" stroke-width="1.44" />
  <line id="mol35:Bond:0" class="event" x1="191.57" y1="154" x2="170.79" y2="142" stroke-width="8" opacity="0" />
  <line id="mol35:Bond:4" class="event" x1="170.79" y1="118" x2="191.57" y2="106" stroke-width="8" opacity="0" />
  <line id="mol35:Bond:8" class="event" x1="150" y1="106" x2="150" y2="82" stroke-width="8" opacity="0" />
  <line id="mol35:Bond:9" class="event" x1="191.57" y1="82" x2="170.79" y2="70" stroke-width="8" opacity="0" />
  <line id="mol35:Bond:1" class="event" x1="170.79" y1="142" x2="150" y2="154" stroke-width="8" opacity="0" />
  <line id="mol35:Bond:2" class="event" x1="170.79" y1="142" x2="170.79" y2="118" stroke-width="8" opacity="0" />
  <line id="mol35:Bond:3" class="event" x1="150" y1="154" x2="129.21" y2="142" stroke-width="8" opacity="0" />
  <line id="mol35:Bond:5" class="event" x1="170.79" y1="118" x2="150" y2="106" stroke-width="8" opacity="0" />
  <line id="mol35:Bond:6" class="event" x1="129.21" y1="142" x2="108.43" y2="154" stroke-width="8" opacity="0" />
  <line id="mol35:Bond:7" class="event" x1="191.57" y1="106" x2="191.57" y2="82" stroke-width="8" opacity="0" />
  <line id="mol35:Bond:10" class="event" x1="170.79" y1="70" x2="170.79" y2="46" stroke-width="8" opacity="0" />
  <line id="mol35:Bond:11" class="event" x1="150" y1="82" x2="170.79" y2="70" stroke-width="8" opacity="0" />
  <circle id="mol35:Atom:0" class="event" cx="191.57" cy="154" r="8" opacity="0" />
  <circle id="mol35:Atom:1" class="event" cx="170.79" cy="142" r="8" opacity="0" />
  <circle id="mol35:Atom:2" class="event" cx="150" cy="154" r="8" opacity="0" />
  <circle id="mol35:Atom:3" class="event" cx="170.79" cy="118" r="8" opacity="0" />
  <circle id="mol35:Atom:4" class="event" cx="129.21" cy="142" r="8" opacity="0" />
  <circle id="mol35:Atom:5" class="event" cx="191.57" cy="106" r="8" opacity="0" />
  <circle id="mol35:Atom:6" class="event" cx="150" cy="106" r="8" opacity="0" />
  <circle id="mol35:Atom:7" class="event" cx="108.43" cy="154" r="8" opacity="0" />
  <circle id="mol35:Atom:8" class="event" cx="191.57" cy="82" r="8" opacity="0" />
  <circle id="mol35:Atom:9" class="event" cx="150" cy="82" r="8" opacity="0" />
  <circle id="mol35:Atom:10" class="event" cx="170.79" cy="70" r="8" opacity="0" />
  <circle id="mol35:Atom:11" class="event" cx="170.79" cy="46" r="8" opacity="0" />
</svg>