<svg id="mol8" xmlns="http://www.w3.org/2000/svg" version="1.1" width="98px" height="63px" viewBox="101 69 98 63">
  <style> text {font-family: sans-serif;} #mol8 { pointer-events:none; } #mol8 .event  { pointer-events:all; } line { stroke-linecap:round; } polygon { stroke-linejoin:round; } </style>
  <line x1="129.21" y1="112" x2="150" y2="124" stroke="rgb(0,0,0)" stroke-width="1.44" />
  <line x1="133.23" y1="110.16" x2="149.58" y2="119.6" stroke="rgb(0,0,0)" stroke-width="1.44" />
  <line x1="129.21" y1="88" x2="150" y2="76" stroke="rgb(0,0,0)" stroke-width="1.44" />
  <line x1="133.23" y1="89.84" x2="149.58" y2="80.4" stroke="rgb(0,0,0)" stroke-width="1.44" />
  <line x1="170.78" y1="112" x2="170.78" y2="88" stroke="rgb(0,0,0)" stroke-width="1.44" />
  <line x1="167.18" y1="109.44" x2="167.18" y2="90.56" stroke="rgb(0,0,0)" stroke-width="1.44" />
  <line x1="129.21" y1="112" x2="129.21" y2="88" stroke="rgb(0,0,0)" stroke-width="1.44" />
  <line x1="129.21" y1="112" x2="108.43" y2="124" stroke="rgb(0,0,0)" stroke-width="1.44" />
  <line x1="150" y1="124" x2="170.78" y2="112" stroke="rgb(0,0,0)" stroke-width="1.44" />
  <line x1="170.78" y1="112" x2="191.57" y2="124" stroke="rgb(0,0,0)" stroke-width="1.44" />
  <line x1="150" y1="76" x2="170.78" y2="88" stroke="rgb(0,0,0)" stroke-width="1.44" />
  <line id="mol8:Bond:0" class="event" x1="129.21" y1="112" x2="150" y2="124" stroke-width="8" opacity="0" />
  <line id="mol8:Bond:4" class="event" x1="129.21" y1="88" x2="150" y2="76" stroke-width="8" opacity="0" />
  <line id="mol8:Bond:5" class="event" x1="170.78" y1="112" x2="170.78" y2="88" stroke-width="8" opacity="0" />
  <line id="mol8:Bond:1" class="event" x1="129.21" y1="112" x2="129.21" y2="88" stroke-width="8" opacity="0" />
  <line id="mol8:Bond:2" class="event" x1="129.21" y1="112" x2="108.43" y2="124" stroke-width="8" opacity="0" />
  <line id="mol8:Bond:3" class="event" x1="150" y1="124" x2="170.78" y2="112" stroke-width="8" opacity="0" />
  <line id="mol8:Bond:6" class="event" x1="170.78" y1="112" x2="191.57" y2="124" stroke-width="8" opacity="0" />
  <line id="mol8:Bond:7" class="event" x1="150" y1="76" x2="170.78" y2="88" stroke-width="8" opacity="0" />
  <circle id="mol8:Atom:0" class="event" cx="129.21" cy="112" r="8" opacity="0" />
  <circle id="mol8:Atom:1" class="event" cx="150" cy="124" r="8" opacity="0" />
  <circle id="mol8:Atom:2" class="event" cx="129.21" cy="88" r="8" opacity="0" />
  <circle id="mol8:Atom:3" class="event" cx="108.43" cy="124" r="8" opacity="0" />
  <circle id="mol8:Atom:4" class="event" cx="170.78" cy="112" r="8" opacity="0" />
  <circle id="mol8:Atom:5" class="event" cx="150" cy="76" r="8" opacity="0" />
  <circle id="mol8:Atom:6" class="event" cx="170.78" cy="88" r="8" opacity="0" />
  <circle id="mol8:Atom:7" class="event" cx="191.57" cy="124" r="8" opacity="0" />
</svg>