<svg id="mol9" xmlns="http://www.w3.org/2000/svg" version="1.1" width="77px" height="63px" viewBox="111 69 77 63">
  <style> text {font-family: sans-serif;} #mol9 { pointer-events:none; } #mol9 .event  { pointer-events:all; } line { stroke-linecap:round; } polygon { stroke-linejoin:round; } </style>
  <line x1="139.61" y1="112" x2="160.39" y2="124" stroke="rgb(0,0,0)" stroke-width="1.44" />
  <line x1="143.62" y1="110.16" x2="159.98" y2="119.6" stroke="rgb(0,0,0)" stroke-width="1.44" />
  <line x1="139.61" y1="88" x2="160.39" y2="76" stroke="rgb(0,0,0)" stroke-width="1.44" />
  <line x1="143.62" y1="89.84" x2="159.98" y2="80.4" stroke="rgb(0,0,0)" stroke-width="1.44" />
  <line x1="181.18" y1="112" x2="181.18" y2="88" stroke="rgb(0,0,0)" stroke-width="1.44" />
  <line x1="177.58" y1="109.44" x2="177.58" y2="90.56" stroke="rgb(0,0,0)" stroke-width="1.44" />
  <line x1="139.61" y1="112" x2="139.61" y2="88" stroke="rgb(0,0,0)" stroke-width="1.44" />
  <line x1="139.61" y1="112" x2="118.82" y2="124" stroke="rgb(0,0,0)" stroke-width="1.44" />
  <line x1="160.39" y1="124" x2="181.18" y2="112" stroke="rgb(0,0,0)" stroke-width="1.44" />
  <line x1="160.39" y1="76" x2="181.18" y2="88" stroke="rgb(0,0,0)" stroke-width="1.44" />
  <line id="mol9:Bond:0" class="event" x1="139.61" y1="112" x2="160.39" y2="124" stroke-width="8" opacity="0" />
  <line id="mol9:Bond:4" class="event" x1="139.61" y1="88" x2="160.39" y2="76" stroke-width="8" opacity="0" />
  <line id="mol9:Bond:5" class="event" x1="181.18" y1="112" x2="181.18" y2="88" stroke-width="8" opacity="0" />
  <line id="mol9:Bond:1" class="event" x1="139.61" y1="112" x2="139.61" y2="88" stroke-width="8" opacity="0" />
  <line id="mol9:Bond:2" class="event" x1="139.61" y1="112" x2="118.82" y2="124" stroke-width="8" opacity="0" />
  <line id="mol9:Bond:3" class="event" x1="160.39" y1="124" x2="181.18" y2="112" stroke-width="8" opacity="0" />
  <line id="mol9:Bond:6" class="event" x1="160.39" y1="76" x2="181.18" y2="88" stroke-width="8" opacity="0" />
  <circle id="mol9:Atom:0" class="event" cx="139.61" cy="112" r="8" opacity="0" />
  <circle id="mol9:Atom:1" class="event" cx="160.39" cy="124" r="8" opacity="0" />
  <circle id="mol9:Atom:2" class="event" cx="139.61" cy="88" r="8" opacity="0" />
  <circle id="mol9:Atom:3" class="event" cx="118.82" cy="124" r="8" opacity="0" />
  <circle id="mol9:Atom:4" class="event" cx="181.18" cy="112" r="8" opacity="0" />
  <circle id="mol9:Atom:5" class="event" cx="160.39" cy="76" r="8" opacity="0" />
  <circle id="mol9:Atom:6" class="event" cx="181.18" cy="88" r="8" opacity="0" />
</svg>