<svg id="mol16" xmlns="http://www.w3.org/2000/svg" version="1.1" width="94px" height="58px" viewBox="111 68 94 58">
  <style> text {font-family: sans-serif;} #mol16 { pointer-events:none; } #mol16 .event  { pointer-events:all; } line { stroke-linecap:round; } polygon { stroke-linejoin:round; } </style>
  <text x="112.26" y="140.15" stroke="none" font-size="12" fill="rgb(160,0,0)">unknown chirality</text>
  <text x="175.73" y="86.67" stroke="none" font-size="14" fill="rgb(255,13,13)">O</text>
  <text x="186.62" y="86.67" stroke="none" font-size="14" fill="rgb(255,13,13)">H</text>
  <line x1="174.73" y1="85.72" x2="167.56" y2="89.86" stroke="rgb(0,0,0)" stroke-width="1.44" />
  <line x1="167.56" y1="89.86" x2="160.39" y2="94" stroke="rgb(192,0,255)" stroke-width="1.44" />
  <line x1="160.39" y1="94" x2="150" y2="88" stroke="rgb(192,0,255)" stroke-width="1.44" />
  <line x1="150" y1="88" x2="139.61" y2="82" stroke="rgb(0,0,0)" stroke-width="1.44" />
  <line x1="160.39" y1="94" x2="160.39" y2="106" stroke="rgb(192,0,255)" stroke-width="1.44" />
  <line x1="160.39" y1="106" x2="160.39" y2="118" stroke="rgb(0,0,0)" stroke-width="1.44" />
  <line x1="139.61" y1="82" x2="118.82" y2="94" stroke="rgb(0,0,0)" stroke-width="1.44" />
  <line id="mol16:Bond:0" class="event" x1="181.18" y1="82" x2="160.39" y2="94" stroke-width="8" opacity="0" />
  <line id="mol16:Bond:1" class="event" x1="160.39" y1="94" x2="139.61" y2="82" stroke-width="8" opacity="0" />
  <line id="mol16:Bond:2" class="event" x1="160.39" y1="94" x2="160.39" y2="118" stroke-width="8" opacity="0" />
  <line id="mol16:Bond:3" class="event" x1="139.61" y1="82" x2="118.82" y2="94" stroke-width="8" opacity="0" />
  <circle id="mol16:Atom:0" class="event" cx="181.18" cy="82" r="8" opacity="0" />
  <circle id="mol16:Atom:1" class="event" cx="160.39" cy="94" r="8" opacity="0" />
  <circle id="mol16:Atom:2" class="event" cx="139.61" cy="82" r="8" opacity="0" />
  <circle id="mol16:Atom:3" class="event" cx="160.39" cy="118" r="8" opacity="0" />
  <circle id="mol16:Atom:4" class="event" cx="118.82" cy="94" r="8" opacity="0" />
</svg>