<svg id="mol17" xmlns="http://www.w3.org/2000/svg" version="1.1" width="140px" height="27px" viewBox="80 87 140 27">
  <style> text {font-family: sans-serif;} #mol17 { pointer-events:none; } #mol17 .event  { pointer-events:all; } line { stroke-linecap:round; } polygon { stroke-linejoin:round; } </style>
  <line x1="150" y1="94" x2="170.78" y2="106" stroke="rgb(0,0,0)" stroke-width="1.44" />
  <line x1="150" y1="94" x2="129.22" y2="106" stroke="rgb(0,0,0)" stroke-width="1.44" />
  <line x1="170.78" y1="106" x2="191.57" y2="94" stroke="rgb(0,0,0)" stroke-width="1.44" />
  <line x1="129.22" y1="106" x2="108.43" y2="94" stroke="rgb(0,0,0)" stroke-width="1.44" />
  <line x1="191.57" y1="94" x2="212.35" y2="106" stroke="rgb(0,0,0)" stroke-width="1.44" />
  <line x1="108.43" y1="94" x2="87.65" y2="106" stroke="rgb(0,0,0)" stroke-width="1.44" />
  <line id="mol17:Bond:0" class="event" x1="150" y1="94" x2="170.78" y2="106" stroke-width="8" opacity="0" />
  <line id="mol17:Bond:1" class="event" x1="150" y1="94" x2="129.22" y2="106" stroke-width="8" opacity="0" />
  <line id="mol17:Bond:2" class="event" x1="170.78" y1="106" x2="191.57" y2="94" stroke-width="8" opacity="0" />
  <line id="mol17:Bond:3" class="event" x1="129.22" y1="106" x2="108.43" y2="94" stroke-width="8" opacity="0" />
  <line id="mol17:Bond:4" class="event" x1="191.57" y1="94" x2="212.35" y2="106" stroke-width="8" opacity="0" />
  <line id="mol17:Bond:5" class="event" x1="108.43" y1="94" x2="87.65" y2="106" stroke-width="8" opacity="0" />
  <circle id="mol17:Atom:0" class="event" cx="150" cy="94" r="8" opacity="0" />
  <circle id="mol17:Atom:1" class="event" cx="170.78" cy="106" r="8" opacity="0" />
  <circle id="mol17:Atom:2" class="event" cx="129.22" cy="106" r="8" opacity="0" />
  <circle id="mol17:Atom:3" class="event" cx="191.57" cy="94" r="8" opacity="0" />
  <circle id="mol17:Atom:4" class="event" cx="108.43" cy="94" r="8" opacity="0" />
  <circle id="mol17:Atom:5" class="event" cx="212.35" cy="106" r="8" opacity="0" />
  <circle id="mol17:Atom:6" class="event" cx="87.65" cy="106" r="8" opacity="0" />
</svg>