<svg id="mol18" xmlns="http://www.w3.org/2000/svg" version="1.1" width="84px" height="106px" viewBox="111 44 84 106">
  <style> text {font-family: sans-serif;} #mol18 { pointer-events:none; } #mol18 .event  { pointer-events:all; } line { stroke-linecap:round; } polygon { stroke-linejoin:round; } </style>
  <text x="175.73" y="62.67" stroke="none" font-size="14" fill="rgb(255,13,13)">O</text>
  <text x="134.16" y="62.67" stroke="none" font-size="14" fill="rgb(255,13,13)">O</text>
  <line x1="160.39" y1="72.08" x2="175.63" y2="63.28" stroke="rgb(0,0,0)" stroke-width="1.44" />
  <line x1="158.59" y1="68.96" x2="173.83" y2="60.16" stroke="rgb(0,0,0)" stroke-width="1.44" />
  <line x1="160.39" y1="94" x2="139.61" y2="106" stroke="rgb(0,0,0)" stroke-width="1.44" />
  <line x1="159.98" y1="98.4" x2="143.62" y2="107.84" stroke="rgb(0,0,0)" stroke-width="1.44" />
  <line x1="181.18" y1="106" x2="181.18" y2="130" stroke="rgb(0,0,0)" stroke-width="1.44" />
  <line x1="177.58" y1="108.56" x2="177.58" y2="127.44" stroke="rgb(0,0,0)" stroke-width="1.44" />
  <line x1="139.61" y1="130" x2="160.39" y2="142" stroke="rgb(0,0,0)" stroke-width="1.44" />
  <line x1="143.62" y1="128.16" x2="159.98" y2="137.6" stroke="rgb(0,0,0)" stroke-width="1.44" />
  <line x1="160.39" y1="70" x2="146.05" y2="61.72" stroke="rgb(0,0,0)" stroke-width="1.44" />
  <line x1="160.39" y1="70" x2="160.39" y2="94" stroke="rgb(0,0,0)" stroke-width="1.44" />
  <line x1="133.16" y1="61.72" x2="118.82" y2="70" stroke="rgb(0,0,0)" stroke-width="1.44" />
  <line x1="160.39" y1="94" x2="181.18" y2="106" stroke="rgb(0,0,0)" stroke-width="1.44" />
  <line x1="139.61" y1="106" x2="139.61" y2="130" stroke="rgb(0,0,0)" stroke-width="1.44" />
  <line x1="181.18" y1="130" x2="160.39" y2="142" stroke="rgb(0,0,0)" stroke-width="1.44" />
  <line id="mol18:Bond:0" class="event" x1="181.18" y1="58" x2="160.39" y2="70" stroke-width="8" opacity="0" />
  <line id="mol18:Bond:4" class="event" x1="160.39" y1="94" x2="139.61" y2="106" stroke-width="8" opacity="0" />
  <line id="mol18:Bond:7" class="event" x1="181.18" y1="106" x2="181.18" y2="130" stroke-width="8" opacity="0" />
  <line id="mol18:Bond:8" class="event" x1="139.61" y1="130" x2="160.39" y2="142" stroke-width="8" opacity="0" />
  <line id="mol18:Bond:1" class="event" x1="160.39" y1="70" x2="139.61" y2="58" stroke-width="8" opacity="0" />
  <line id="mol18:Bond:2" class="event" x1="160.39" y1="70" x2="160.39" y2="94" stroke-width="8" opacity="0" />
  <line id="mol18:Bond:3" class="event" x1="139.61" y1="58" x2="118.82" y2="70" stroke-width="8" opacity="0" />
  <line id="mol18:Bond:5" class="event" x1="160.39" y1="94" x2="181.18" y2="106" stroke-width="8" opacity="0" />
  <line id="mol18:Bond:6" class="event" x1="139.61" y1="106" x2="139.61" y2="130" stroke-width="8" opacity="0" />
  <line id="mol18:Bond:9" class="event" x1="181.18" y1="130" x2="160.39" y2="142" stroke-width="8" opacity="0" />
  <circle id="mol18:Atom:0" class="event" cx="181.18" cy="58" r="8" opacity="0" />
  <circle id="mol18:Atom:1" class="event" cx="160.39" cy="70" r="8" opacity="0" />
  <circle id="mol18:Atom:2" class="event" cx="139.61" cy="58" r="8" opacity="0" />
  <circle id="mol18:Atom:3" class="event" cx="160.39" cy="94" r="8" opacity="0" />
  <circle id="mol18:Atom:4" class="event" cx="118.82" cy="70" r="8" opacity="0" />
  <circle id="mol18:Atom:5" class="event" cx="139.61" cy="106" r="8" opacity="0" />
  <circle id="mol18:Atom:6" class="event" cx="181.18" cy="106" r="8" opacity="0" />
  <circle id="mol18:Atom:7" class="event" cx="139.61" cy="130" r="8" opacity="0" />
  <circle id="mol18:Atom:8" class="event" cx="181.18" cy="130" r="8" opacity="0" />
  <circle id="mol18:Atom:9" class="event" cx="160.39" cy="142" r="8" opacity="0" />
</svg>