<svg id="mol19" xmlns="http://www.w3.org/2000/svg" version="1.1" width="84px" height="137px" viewBox="111 32 84 137">
  <style> text {font-family: sans-serif;} #mol19 { pointer-events:none; } #mol19 .event  { pointer-events:all; } line { stroke-linecap:round; } polygon { stroke-linejoin:round; } </style>
  <text x="175.73" y="50.67" stroke="none" font-size="14" fill="rgb(255,13,13)">O</text>
  <text x="134.16" y="50.67" stroke="none" font-size="14" fill="rgb(255,13,13)">O</text>
  <text x="154.95" y="158.67" stroke="none" font-size="14" fill="rgb(255,13,13)">O</text>
  <text x="165.84" y="158.67" stroke="none" font-size="14" fill="rgb(255,13,13)">H</text>
  <line x1="160.39" y1="60.08" x2="175.63" y2="51.28" stroke="rgb(0,0,0)" stroke-width="1.44" />
  <line x1="158.59" y1="56.96" x2="173.83" y2="48.16" stroke="rgb(0,0,0)" stroke-width="1.44" />
  <line x1="160.39" y1="82" x2="139.61" y2="94" stroke="rgb(0,0,0)" stroke-width="1.44" />
  <line x1="159.98" y1="86.4" x2="143.62" y2="95.84" stroke="rgb(0,0,0)" stroke-width="1.44" />
  <line x1="181.18" y1="94" x2="181.18" y2="118" stroke="rgb(0,0,0)" stroke-width="1.44" />
  <line x1="177.58" y1="96.56" x2="177.58" y2="115.44" stroke="rgb(0,0,0)" stroke-width="1.44" />
  <line x1="139.61" y1="118" x2="160.39" y2="130" stroke="rgb(0,0,0)" stroke-width="1.44" />
  <line x1="143.62" y1="116.16" x2="159.98" y2="125.6" stroke="rgb(0,0,0)" stroke-width="1.44" />
  <line x1="160.39" y1="58" x2="146.05" y2="49.72" stroke="rgb(0,0,0)" stroke-width="1.44" />
  <line x1="160.39" y1="58" x2="160.39" y2="82" stroke="rgb(0,0,0)" stroke-width="1.44" />
  <line x1="133.16" y1="49.72" x2="118.82" y2="58" stroke="rgb(0,0,0)" stroke-width="1.44" />
  <line x1="160.39" y1="82" x2="181.18" y2="94" stroke="rgb(0,0,0)" stroke-width="1.44" />
  <line x1="139.61" y1="94" x2="139.61" y2="118" stroke="rgb(0,0,0)" stroke-width="1.44" />
  <line x1="160.39" y1="130" x2="160.39" y2="147" stroke="rgb(0,0,0)" stroke-width="1.44" />
  <line x1="181.18" y1="118" x2="160.39" y2="130" stroke="rgb(0,0,0)" stroke-width="1.44" />
  <line id="mol19:Bond:0" class="event" x1="181.18" y1="46" x2="160.39" y2="58" stroke-width="8" opacity="0" />
  <line id="mol19:Bond:4" class="event" x1="160.39" y1="82" x2="139.61" y2="94" stroke-width="8" opacity="0" />
  <line id="mol19:Bond:7" class="event" x1="181.18" y1="94" x2="181.18" y2="118" stroke-width="8" opacity="0" />
  <line id="mol19:Bond:8" class="event" x1="139.61" y1="118" x2="160.39" y2="130" stroke-width="8" opacity="0" />
  <line id="mol19:Bond:1" class="event" x1="160.39" y1="58" x2="139.61" y2="46" stroke-width="8" opacity="0" />
  <line id="mol19:Bond:2" class="event" x1="160.39" y1="58" x2="160.39" y2="82" stroke-width="8" opacity="0" />
  <line id="mol19:Bond:3" class="event" x1="139.61" y1="46" x2="118.82" y2="58" stroke-width="8" opacity="0" />
  <line id="mol19:Bond:5" class="event" x1="160.39" y1="82" x2="181.18" y2="94" stroke-width="8" opacity="0" />
  <line id="mol19:Bond:6" class="event" x1="139.61" y1="94" x2="139.61" y2="118" stroke-width="8" opacity="0" />
  <line id="mol19:Bond:9" class="event" x1="160.39" y1="130" x2="160.39" y2="154" stroke-width="8" opacity="0" />
  <line id="mol19:Bond:10" class="event" x1="181.18" y1="118" x2="160.39" y2="130" stroke-width="8" opacity="0" />
  <circle id="mol19:Atom:0" class="event" cx="181.18" cy="46" r="8" opacity="0" />
  <circle id="mol19:Atom:1" class="event" cx="160.39" cy="58" r="8" opacity="0" />
  <circle id="mol19:Atom:2" class="event" cx="139.61" cy="46" r="8" opacity="0" />
  <circle id="mol19:Atom:3" class="event" cx="160.39" cy="82" r="8" opacity="0" />
  <circle id="mol19:Atom:4" class="event" cx="118.82" cy="58" r="8" opacity="0" />
  <circle id="mol19:Atom:5" class="event" cx="139.61" cy="94" r="8" opacity="0" />
  <circle id="mol19:Atom:6" class="event" cx="181.18" cy="94" r="8" opacity="0" />
  <circle id="mol19:Atom:7" class="event" cx="139.61" cy="118" r="8" opacity="0" />
  <circle id="mol19:Atom:8" class="event" cx="181.18" cy="118" r="8" opacity="0" />
  <circle id="mol19:Atom:9" class="event" cx="160.39" cy="130" r="8" opacity="0" />
  <circle id="mol19:Atom:10" class="event" cx="160.39" cy="154" r="8" opacity="0" />
</svg>