<svg id="mol26" xmlns="http://www.w3.org/2000/svg" version="1.1" width="98px" height="70px" viewBox="111 62 98 70">
  <style> text {font-family: sans-serif;} #mol26 { pointer-events:none; } #mol26 .event  { pointer-events:all; } line { stroke-linecap:round; } polygon { stroke-linejoin:round; } </style>
  <text x="176.12" y="80.67" stroke="none" font-size="14" fill="rgb(48,80,248)">N</text>
  <text x="196.34" y="84" stroke="none" font-size="9" fill="rgb(48,80,248)">2</text>
  <text x="186.23" y="80.67" stroke="none" font-size="14" fill="rgb(48,80,248)">H</text>
  <line x1="160.39" y1="88" x2="139.61" y2="76" stroke="rgb(0,0,0)" stroke-width="1.44" />
  <line x1="156.38" y1="89.84" x2="140.03" y2="80.4" stroke="rgb(0,0,0)" stroke-width="1.44" />
  <line x1="160.39" y1="112" x2="139.61" y2="124" stroke="rgb(0,0,0)" stroke-width="1.44" />
  <line x1="156.38" y1="110.16" x2="140.03" y2="119.6" stroke="rgb(0,0,0)" stroke-width="1.44" />
  <line x1="118.82" y1="88" x2="118.82" y2="112" stroke="rgb(0,0,0)" stroke-width="1.44" />
  <line x1="122.42" y1="90.56" x2="122.42" y2="109.44" stroke="rgb(0,0,0)" stroke-width="1.44" />
  <line x1="175.12" y1="79.5" x2="160.39" y2="88" stroke="rgb(0,0,0)" stroke-width="1.44" />
  <line x1="160.39" y1="88" x2="160.39" y2="112" stroke="rgb(0,0,0)" stroke-width="1.44" />
  <line x1="139.61" y1="76" x2="118.82" y2="88" stroke="rgb(0,0,0)" stroke-width="1.44" />
  <line x1="139.61" y1="124" x2="118.82" y2="112" stroke="rgb(0,0,0)" stroke-width="1.44" />
  <line id="mol26:Bond:1" class="event" x1="160.39" y1="88" x2="139.61" y2="76" stroke-width="8" opacity="0" />
  <line id="mol26:Bond:4" class="event" x1="160.39" y1="112" x2="139.61" y2="124" stroke-width="8" opacity="0" />
  <line id="mol26:Bond:5" class="event" x1="118.82" y1="88" x2="118.82" y2="112" stroke-width="8" opacity="0" />
  <line id="mol26:Bond:0" class="event" x1="181.18" y1="76" x2="160.39" y2="88" stroke-width="8" opacity="0" />
  <line id="mol26:Bond:2" class="event" x1="160.39" y1="88" x2="160.39" y2="112" stroke-width="8" opacity="0" />
  <line id="mol26:Bond:3" class="event" x1="139.61" y1="76" x2="118.82" y2="88" stroke-width="8" opacity="0" />
  <line id="mol26:Bond:6" class="event" x1="139.61" y1="124" x2="118.82" y2="112" stroke-width="8" opacity="0" />
  <circle id="mol26:Atom:0" class="event" cx="181.18" cy="76" r="8" opacity="0" />
  <circle id="mol26:Atom:1" class="event" cx="160.39" cy="88" r="8" opacity="0" />
  <circle id="mol26:Atom:2" class="event" cx="139.61" cy="76" r="8" opacity="0" />
  <circle id="mol26:Atom:3" class="event" cx="160.39" cy="112" r="8" opacity="0" />
  <circle id="mol26:Atom:4" class="event" cx="118.82" cy="88" r="8" opacity="0" />
  <circle id="mol26:Atom:5" class="event" cx="139.61" cy="124" r="8" opacity="0" />
  <circle id="mol26:Atom:6" class="event" cx="118.82" cy="112" r="8" opacity="0" />
</svg>