<svg id="mol29" xmlns="http://www.w3.org/2000/svg" version="1.1" width="193px" height="41px" viewBox="53 80 193 41">
  <style> text {font-family: sans-serif;} #mol29 { pointer-events:none; } #mol29 .event  { pointer-events:all; } line { stroke-linecap:round; } polygon { stroke-linejoin:round; } </style>
  <text x="217.3" y="98.67" stroke="none" font-size="14" fill="rgb(255,13,13)">O</text>
  <text x="228.19" y="98.67" stroke="none" font-size="14" fill="rgb(255,13,13)">H</text>
  <text x="71.81" y="110.67" stroke="none" font-size="14" fill="rgb(255,13,13)">O</text>
  <text x="61.7" y="110.67" stroke="none" font-size="14" fill="rgb(255,13,13)">H</text>
  <line x1="216.3" y1="97.72" x2="201.96" y2="106" stroke="rgb(0,0,0)" stroke-width="1.44" />
  <line x1="201.96" y1="106" x2="181.18" y2="94" stroke="rgb(0,0,0)" stroke-width="1.44" />
  <line x1="181.18" y1="94" x2="160.39" y2="106" stroke="rgb(0,0,0)" stroke-width="1.44" />
  <line x1="160.39" y1="106" x2="139.61" y2="94" stroke="rgb(0,0,0)" stroke-width="1.44" />
  <line x1="139.61" y1="94" x2="118.82" y2="106" stroke="rgb(0,0,0)" stroke-width="1.44" />
  <line x1="118.82" y1="106" x2="98.04" y2="94" stroke="rgb(0,0,0)" stroke-width="1.44" />
  <line x1="98.04" y1="94" x2="83.7" y2="102.28" stroke="rgb(0,0,0)" stroke-width="1.44" />
  <line id="mol29:Bond:0" class="event" x1="222.75" y1="94" x2="201.96" y2="106" stroke-width="8" opacity="0" />
  <line id="mol29:Bond:1" class="event" x1="201.96" y1="106" x2="181.18" y2="94" stroke-width="8" opacity="0" />
  <line id="mol29:Bond:2" class="event" x1="181.18" y1="94" x2="160.39" y2="106" stroke-width="8" opacity="0" />
  <line id="mol29:Bond:3" class="event" x1="160.39" y1="106" x2="139.61" y2="94" stroke-width="8" opacity="0" />
  <line id="mol29:Bond:4" class="event" x1="139.61" y1="94" x2="118.82" y2="106" stroke-width="8" opacity="0" />
  <line id="mol29:Bond:5" class="event" x1="118.82" y1="106" x2="98.04" y2="94" stroke-width="8" opacity="0" />
  <line id="mol29:Bond:6" class="event" x1="98.04" y1="94" x2="77.25" y2="106" stroke-width="8" opacity="0" />
  <circle id="mol29:Atom:0" class="event" cx="222.75" cy="94" r="8" opacity="0" />
  <circle id="mol29:Atom:1" class="event" cx="201.96" cy="106" r="8" opacity="0" />
  <circle id="mol29:Atom:2" class="event" cx="181.18" cy="94" r="8" opacity="0" />
  <circle id="mol29:Atom:3" class="event" cx="160.39" cy="106" r="8" opacity="0" />
  <circle id="mol29:Atom:4" class="event" cx="139.61" cy="94" r="8" opacity="0" />
  <circle id="mol29:Atom:5" class="event" cx="118.82" cy="106" r="8" opacity="0" />
  <circle id="mol29:Atom:6" class="event" cx="98.04" cy="94" r="8" opacity="0" />
  <circle id="mol29:Atom:7" class="event" cx="77.25" cy="106" r="8" opacity="0" />
</svg>